<svg xmlns="http://www.w3.org/2000/svg" version="1.1" xmlns:xlink="http://www.w3.org/1999/xlink" width="1000" height="1000"><g clip-path="url(#SvgjsClipPath1118)"><rect width="1000" height="1000" fill="#ffffff"></rect><g transform="matrix(5,0,0,5,0,0)"><svg xmlns="http://www.w3.org/2000/svg" version="1.1" xmlns:xlink="http://www.w3.org/1999/xlink" width="200" height="200"><svg xmlns="http://www.w3.org/2000/svg" version="1.1" xmlns:xlink="http://www.w3.org/1999/xlink" viewBox="0 0 200 200"><rect width="200" height="200" fill="url('#gradient')"></rect><defs><linearGradient id="gradient" gradientTransform="rotate(45 0.5 0.5)"><stop offset="0%" stop-color="#8595b6"></stop><stop offset="100%" stop-color="#ebf1f1"></stop></linearGradient><clipPath id="SvgjsClipPath1118"><rect width="1000" height="1000" x="0" y="0" rx="500" ry="500"></rect></clipPath></defs><g><g fill="#242f35" transform="matrix(1.9196000833159759,0,0,1.9196000833159759,7.941595124865643,114.20738401573863)" stroke="#323847" stroke-width="0.2"><path d="M12.96-14.22L12.96 0L9.55 0L9.55-5.94L4.50-5.94L4.50 0L1.07 0L1.07-14.22L4.50-14.22L4.50-8.57L9.55-8.57L9.55-14.22L12.96-14.22ZM14.57-4.82L14.56-5.38Q14.56-6.96 15.18-8.20Q15.79-9.43 16.94-10.10Q18.10-10.76 19.65-10.76L19.65-10.76Q22.02-10.76 23.39-9.29Q24.76-7.82 24.76-5.29L24.76-5.29L24.76-5.18Q24.76-2.71 23.38-1.25Q22.01 0.20 19.67 0.20L19.67 0.20Q17.41 0.20 16.04-1.16Q14.68-2.51 14.57-4.82L14.57-4.82ZM17.86-5.77L17.85-5.18Q17.85-3.71 18.31-3.03Q18.77-2.34 19.67-2.34L19.67-2.34Q21.43-2.34 21.46-5.05L21.46-5.05L21.46-5.38Q21.46-8.22 19.65-8.22L19.65-8.22Q18.00-8.22 17.86-5.77L17.86-5.77ZM26.75-13.19L30.04-13.19L30.04-10.57L31.78-10.57L31.78-8.28L30.04-8.28L30.04-3.45Q30.04-2.85 30.25-2.62Q30.47-2.38 31.10-2.38L31.10-2.38Q31.59-2.38 31.92-2.44L31.92-2.44L31.92-0.09Q31.04 0.20 30.07 0.20L30.07 0.20Q28.37 0.20 27.56-0.61Q26.75-1.41 26.75-3.04L26.75-3.04L26.75-8.28L25.40-8.28L25.40-10.57L26.75-10.57L26.75-13.19ZM38.18 0.20L38.18 0.20Q35.75 0.20 34.25-1.25Q32.74-2.71 32.74-5.03L32.74-5.03L32.74-5.30Q32.74-6.92 33.34-8.16Q33.95-9.40 35.10-10.08Q36.25-10.76 37.83-10.76L37.83-10.76Q40.06-10.76 41.35-9.38Q42.64-8.00 42.64-5.53L42.64-5.53L42.64-4.25L36.09-4.25Q36.27-3.36 36.87-2.85Q37.46-2.34 38.41-2.34L38.41-2.34Q39.97-2.34 40.85-3.44L40.85-3.44L42.35-1.66Q41.74-0.81 40.61-0.31Q39.48 0.20 38.18 0.20ZM37.81-8.22L37.81-8.22Q36.37-8.22 36.09-6.31L36.09-6.31L39.41-6.31L39.41-6.56Q39.43-7.35 39.01-7.79Q38.59-8.22 37.81-8.22ZM47.43-15L47.43 0L44.13 0L44.13-15L47.43-15ZM54.99-2.97L54.99-2.97Q54.99-3.39 54.55-3.64Q54.11-3.90 52.88-4.17Q51.65-4.44 50.85-4.89Q50.05-5.33 49.63-5.97Q49.21-6.60 49.21-7.42L49.21-7.42Q49.21-8.88 50.41-9.82Q51.61-10.76 53.55-10.76L53.55-10.76Q55.64-10.76 56.91-9.81Q58.18-8.87 58.18-7.32L58.18-7.32L54.88-7.32Q54.88-8.59 53.54-8.59L53.54-8.59Q53.03-8.59 52.68-8.31Q52.32-8.02 52.32-7.59L52.32-7.59Q52.32-7.15 52.75-6.88Q53.18-6.60 54.13-6.43Q55.07-6.25 55.78-6.01L55.78-6.01Q58.16-5.19 58.16-3.07L58.16-3.07Q58.16-1.62 56.88-0.71Q55.60 0.20 53.55 0.20L53.55 0.20Q52.20 0.20 51.13-0.29Q50.07-0.78 49.47-1.62Q48.88-2.46 48.88-3.39L48.88-3.39L51.95-3.39Q51.97-2.66 52.44-2.32Q52.91-1.98 53.64-1.98L53.64-1.98Q54.32-1.98 54.65-2.26Q54.99-2.53 54.99-2.97ZM71.74-14.22L71.74 0L68.33 0L68.33-5.94L63.28-5.94L63.28 0L59.85 0L59.85-14.22L63.28-14.22L63.28-8.57L68.33-8.57L68.33-14.22L71.74-14.22ZM80.15 0L80.05-1.14Q79.00 0.20 77.23 0.20L77.23 0.20Q75.49 0.20 74.59-0.82Q73.70-1.83 73.70-3.72L73.70-3.72L73.70-10.57L76.99-10.57L76.99-3.70Q76.99-2.34 78.31-2.34L78.31-2.34Q79.44-2.34 79.92-3.15L79.92-3.15L79.92-10.57L83.23-10.57L83.23 0L80.15 0ZM94.84-5.36L94.84-5.20Q94.84-2.60 93.77-1.20Q92.70 0.20 90.74 0.20L90.74 0.20Q89.13 0.20 88.14-1.08L88.14-1.08L88.01 0L85.06 0L85.06-15L88.35-15L88.35-9.72Q89.27-10.76 90.72-10.76L90.72-10.76Q92.70-10.76 93.77-9.35Q94.84-7.93 94.84-5.36L94.84-5.36ZM91.54-5.40L91.54-5.40Q91.54-6.92 91.14-7.57Q90.73-8.22 89.89-8.22L89.89-8.22Q88.78-8.22 88.35-7.37L88.35-7.37L88.35-3.17Q88.77-2.33 89.91-2.33L89.91-2.33Q91.07-2.33 91.39-3.47L91.39-3.47Q91.54-4.02 91.54-5.40Z"></path></g></g></svg></svg></g></g></svg>